<?xml version="1.0" encoding="utf-8"?>
<!-- Generator: Adobe Illustrator 18.0.0, SVG Export Plug-In . SVG Version: 6.00 Build 0)  -->
<!DOCTYPE svg PUBLIC "-//W3C//DTD SVG 1.1//EN" "http://www.w3.org/Graphics/SVG/1.1/DTD/svg11.dtd">
<svg version="1.1" id="Layer_1" xmlns="http://www.w3.org/2000/svg" xmlns:xlink="http://www.w3.org/1999/xlink" x="0px" y="0px"
	 viewBox="0 0 612 792" enable-background="new 0 0 612 792" xml:space="preserve">
<g id="Layer_x0020_3">
	<path id="icon" fill="#070707" d="M297,506L182.2,639.8c-22.7,25.1-65.7-8.4-43-37.1l119.5-137.5c1.2-1.2,8.4-1.2,9.6,0L146.4,604
		c-7.2,8.4-8.4,16.7-3.6,23.9c1.2,2.4,2.4,4.8,4.8,7.2c2.4,2.4,4.8,3.6,8.4,3.6c8.4,2.4,15.5,0,22.7-8.4l115.9-137.5
		C298.2,496.4,298.2,502.4,297,506L297,506z M344.8,434.2l150.6,172.1c15.5,17.9-8.4,41.8-25.1,21.5L324.5,458.2L344.8,434.2
		L344.8,434.2z M347.2,506l114.7,133.9c22.7,25.1,65.7-8.4,43-37.1L385.4,465.3c-1.2-1.2-8.4-1.2-9.6,0l121.9,139.9
		c7.2,8.4,8.4,16.7,3.6,23.9c-1.2,2.4-2.4,4.8-4.8,7.2c-2.4,2.4-4.8,3.6-8.4,3.6c-8.4,2.4-15.5,0-22.7-8.4L348.4,494
		C346,496.4,344.8,502.4,347.2,506L347.2,506z M317.3,403.2l-221.1-257c-25.1,49,51.4,159,98,217.5c10.8,14.3,23.9,31.1,37.1,43
		c14.3,14.3,40.6,12,51.4,2.4l15.5,16.7l2.4,3.6l20.3-25.1L317.3,403.2L317.3,403.2z M360.3,363.7L148.8,606.4
		c-15.5,17.9,8.4,41.8,25.1,21.5L383,384c27.5,22.7,61-2.4,69.3-10.8l125.5-145.8c8.4-8.4,9.6-21.5,7.2-32.3L489.4,304l-12-8.4
		l99.2-112.4c-1.2-1.2-1.2-1.2-2.4-2.4l-8.4-8.4L463.1,288.4l-10.8-8.4l102.8-115.9l-9.6-9.6c-1.2-1.2-2.4-1.2-2.4-2.4L441.6,266.9
		l-7.2-13.1L530.1,145c-10.8-2.4-23.9,2.4-31.1,10.8L372.3,299.2C363.9,309.9,343.6,343.4,360.3,363.7L360.3,363.7z"/>
</g>
</svg>
