<?xml version="1.0" encoding="utf-8"?>
<!-- Generator: Adobe Illustrator 18.1.1, SVG Export Plug-In . SVG Version: 6.00 Build 0)  -->
<svg version="1.1" id="Layer_1" xmlns="http://www.w3.org/2000/svg" xmlns:xlink="http://www.w3.org/1999/xlink" x="0px" y="0px"
	 viewBox="0 0 124 50" enable-background="new 0 0 124 50" xml:space="preserve">
<g id="Layer_x0020_4">
	<path id="Letters" fill="#FFFFFF" d="M59.3,14.7c0-0.3,0-0.5,0.1-0.9c0.1-0.3,0.3-0.5,0.5-0.7c0.3-0.3,0.4-0.4,0.8-0.5
		c0.3-0.1,0.5-0.1,0.9-0.1c0.3,0,0.5,0,0.9,0.1c0.3,0.1,0.5,0.3,0.8,0.5c0.3,0.3,0.4,0.4,0.5,0.7s0.1,0.5,0.1,0.9
		c0,0.7-0.3,1.2-0.7,1.6c-0.3,0.3-0.5,0.4-0.8,0.5c0,0.2-0.2,0.2-0.6,0.2s-0.5,0-0.9-0.1c-0.3-0.1-0.5-0.3-0.8-0.5
		c-0.3-0.1-0.4-0.4-0.5-0.8C59.3,15.2,59.3,15,59.3,14.7L59.3,14.7z M47.6,19.3c0.1-0.1,0.4-0.4,0.8-0.5c0.4-0.3,0.8-0.4,1.4-0.5
		c0.5-0.1,0.9-0.1,1.5-0.1c0.9,0,1.8,0.1,2.4,0.5l0,0c0.7,0.4,1.4,0.8,1.9,1.5s0.9,1.4,1.2,2.3c0.3,0.8,0.4,1.8,0.4,2.8
		c0,1.1-0.1,2-0.4,2.8c-0.3,0.9-0.7,1.6-1.2,2.3s-1.2,1.1-2,1.5c-0.8,0.3-1.6,0.5-2.6,0.5c-0.4,0-0.9,0-1.4-0.1s-0.8-0.3-1.2-0.4
		c-0.4-0.1-0.7-0.4-0.9-0.7v1.2h-3.9c0-6.9,0-13.8,0-20.7h3.9L47.6,19.3L47.6,19.3z M47.4,25.1c0,0.5,0,1.1,0.3,1.5
		c0.1,0.4,0.4,0.8,0.7,1.1l0,0c0.3,0.3,0.5,0.5,0.9,0.7s0.7,0.3,1.1,0.3c0.9,0,1.6-0.3,2-0.8c0.3-0.3,0.4-0.7,0.5-1.1
		s0.1-0.9,0.1-1.6c0-0.5,0-1.1-0.1-1.6c-0.1-0.4-0.4-0.8-0.5-1.1c-0.3-0.3-0.5-0.5-0.9-0.7s-0.8-0.3-1.2-0.3c-0.9,0-1.6,0.3-2,0.8
		c-0.3,0.3-0.4,0.7-0.5,1.1C47.4,23.9,47.4,24.4,47.4,25.1z M4.5,32.3V11.6l0,0l0,0h1.4l0,0l0,0l8.4,10.1l8.4-10.1l0,0l0,0h1.4l0,0
		l0,0v20.5l0,0l0,0H20l0,0l0,0V20.4l-5.7,6.8l0,0l0,0l-5.7-6.8v11.7l0,0l0,0L4.5,32.3L4.5,32.3L4.5,32.3L4.5,32.3z M105.4,25.1
		c0-0.4,0-0.9,0.1-1.4s0.3-0.9,0.4-1.4c0.1-0.4,0.4-0.8,0.7-1.2s0.5-0.8,0.9-1.1c0.3-0.3,0.7-0.5,1.1-0.9c0.4-0.3,0.8-0.4,1.2-0.7
		c0.4-0.1,0.8-0.3,1.4-0.4c0.5-0.1,0.9-0.1,1.4-0.1c0.9,0,1.9,0.1,2.8,0.5c0.4,0.1,0.8,0.4,1.2,0.7c0.4,0.3,0.8,0.5,1.1,0.9
		c0.4,0.4,0.7,0.7,0.9,1.1s0.5,0.8,0.7,1.2s0.3,0.8,0.4,1.4c0.1,0.4,0.1,0.9,0.1,1.4s0,0.9-0.1,1.4c-0.1,0.4-0.3,0.8-0.4,1.4
		c-0.3,0.4-0.4,0.9-0.7,1.2c-0.3,0.4-0.5,0.8-0.9,1.1c-0.4,0.4-0.8,0.7-1.1,0.9c-0.4,0.3-0.8,0.5-1.2,0.7l0,0
		c-0.4,0.1-0.9,0.3-1.4,0.4c-0.5,0.1-0.9,0.1-1.4,0.1c-0.4,0-0.9,0-1.4-0.1c-0.4-0.1-0.8-0.3-1.4-0.4l0,0c-0.4-0.1-0.9-0.4-1.2-0.7
		c-0.4-0.3-0.8-0.5-1.1-0.9c-0.4-0.4-0.7-0.7-0.9-1.1s-0.5-0.8-0.7-1.2c-0.1-0.4-0.4-0.8-0.4-1.4C105.4,26,105.2,25.5,105.4,25.1
		L105.4,25.1z M115.8,25.1c0-0.9-0.3-1.9-0.9-2.6c-0.3-0.3-0.7-0.5-1.1-0.8c-0.4-0.1-0.8-0.3-1.2-0.3s-0.8,0.1-1.2,0.3
		c-0.4,0.1-0.7,0.4-1.1,0.8c-0.3,0.4-0.5,0.7-0.7,1.1s-0.3,0.9-0.3,1.4s0.1,0.9,0.3,1.4s0.4,0.8,0.7,1.1c0.3,0.4,0.7,0.5,1.1,0.8
		c0.4,0.1,0.8,0.3,1.2,0.3s0.9-0.1,1.2-0.3c0.4-0.1,0.7-0.4,1.1-0.8c0.3-0.4,0.5-0.7,0.7-1.1C115.8,26,115.8,25.6,115.8,25.1z
		 M26.5,25.1c0-0.4,0-0.9,0.1-1.4s0.3-0.9,0.4-1.4c0.1-0.4,0.4-0.8,0.7-1.2c0.3-0.4,0.5-0.8,0.9-1.1c0.3-0.3,0.7-0.5,1.1-0.9
		c0.4-0.3,0.8-0.4,1.2-0.7c0.4-0.1,0.8-0.3,1.4-0.4c0.5-0.1,0.9-0.1,1.4-0.1c0.9,0,1.9,0.1,2.8,0.5c0.4,0.1,0.8,0.4,1.2,0.7
		c0.4,0.3,0.8,0.5,1.1,0.9c0.4,0.4,0.7,0.7,0.9,1.1c0.3,0.4,0.5,0.8,0.7,1.2s0.3,0.8,0.4,1.4c0.1,0.4,0.1,0.9,0.1,1.4s0,0.9-0.1,1.4
		s-0.3,0.8-0.4,1.4c-0.3,0.4-0.4,0.9-0.7,1.2c-0.3,0.4-0.5,0.8-0.9,1.1c-0.4,0.4-0.8,0.7-1.1,0.9c-0.4,0.3-0.8,0.5-1.2,0.7l0,0
		c-0.4,0.1-0.9,0.3-1.4,0.4c-0.5,0.1-0.9,0.1-1.4,0.1s-0.9,0-1.4-0.1c-0.4-0.1-0.8-0.3-1.4-0.4l0,0c-0.4-0.1-0.9-0.4-1.2-0.7
		c-0.4-0.3-0.8-0.5-1.1-0.9c-0.4-0.4-0.7-0.7-0.9-1.1c-0.3-0.4-0.5-0.8-0.7-1.2c-0.1-0.4-0.4-0.8-0.4-1.4
		C26.5,26,26.5,25.5,26.5,25.1L26.5,25.1z M37,25.1c0-0.9-0.3-1.9-0.9-2.6c-0.3-0.3-0.7-0.5-1.1-0.8c-0.4-0.1-0.8-0.3-1.2-0.3
		s-0.8,0.1-1.2,0.3c-0.4,0.1-0.7,0.4-1.1,0.8c-0.3,0.4-0.5,0.7-0.7,1.1c-0.1,0.4-0.3,0.9-0.3,1.4s0.1,0.9,0.3,1.4
		c0.1,0.4,0.4,0.8,0.7,1.1c0.3,0.4,0.7,0.5,1.1,0.8c0.4,0.1,0.8,0.3,1.2,0.3s0.9-0.1,1.2-0.3c0.4-0.1,0.7-0.4,1.1-0.8
		c0.3-0.4,0.5-0.7,0.7-1.1S37,25.6,37,25.1z M102.8,21.2v3c0,0.9-0.1,2-0.5,3c-0.8,2.3-2.4,3.8-4.7,4.6c-0.9,0.3-1.9,0.4-3,0.5
		c-0.3,0-0.5,0-0.8,0c-0.8,0-1.5,0-2.3-0.1c-3.6-0.5-6.2-2.6-7.4-6.1c-0.5-1.2-0.8-2.6-0.8-4.1l0,0c0-1.5,0.3-2.8,0.8-4.1
		c0.5-1.2,1.2-2.3,2.3-3.4c0.9-0.9,2-1.6,3.4-2.2c1.2-0.4,2.7-0.7,4.2-0.7l0,0c1.5,0,2.8,0.3,4.1,0.8c0.7,0.3,1.2,0.7,1.8,1.1
		c0.4,0.3,0.7,0.7,0.9,0.9s0.5,0.7,0.9,0.9l-3.1,2.3c-0.3-0.3-0.4-0.4-0.5-0.7c-0.1-0.1-0.4-0.4-0.7-0.5c-0.9-0.7-2-1.1-3.4-1.1
		c-1.9,0-3.4,0.5-4.6,1.8c-1.2,1.2-1.8,2.7-1.8,4.6c0,2,0.5,3.5,1.8,4.7c1.2,1.2,2.7,1.8,4.6,1.8c0.7,0,1.4,0,2-0.3
		c0.7-0.1,1.2-0.4,1.8-0.8c0.8-0.7,1.2-1.5,1.2-2.6h-4.5V21L102.8,21.2L102.8,21.2z M80.8,32.3H66.1l0.8-0.9l7.2-8.6
		c0.4-0.5,0.8-1.1,1.1-1.5c0.3-0.4,0.5-0.8,0.8-1.2c0.1-0.3,0.3-0.7,0.4-1.1c0.1-0.3,0.1-0.5,0.1-0.9c0-0.8-0.3-1.4-0.7-1.9
		c-0.3-0.3-0.5-0.4-0.8-0.4c-0.3-0.1-0.7-0.1-1.1-0.1s-0.7,0-0.9,0.1c-0.3,0.1-0.5,0.3-0.8,0.4c-0.3,0.3-0.4,0.4-0.5,0.8
		c-0.1,0.3-0.3,0.7-0.3,1.1v0.5h-4.1v-0.5c0-0.9,0.1-1.8,0.4-2.6c0.4-0.8,0.8-1.5,1.5-2s1.4-0.9,2.3-1.4c0.8-0.3,1.8-0.4,2.8-0.4
		c0.9,0,1.9,0.1,2.7,0.4s1.5,0.7,2.2,1.2c0.5,0.5,1.1,1.2,1.4,1.9s0.4,1.5,0.4,2.4c0,0.7-0.1,1.2-0.3,1.9c-0.1,0.5-0.4,1.2-0.8,1.9
		c-0.3,0.5-0.8,1.4-1.5,2.3c-0.8,0.9-1.6,2-2.6,3.1l-1.6,1.9h6.6L80.8,32.3L80.8,32.3z M59.6,17.9h3.9v14.3h-3.9V17.9z"/>
</g>
</svg>
